<svg width="131" height="32" viewBox="0 0 131 32" fill="none" xmlns="http://www.w3.org/2000/svg">
<path d="M18.618 20.3636H13.3818V25.6H18.618V20.3636Z" fill="#7CE8FE"/>
<path d="M22.2342 13.382H13.3818V18.6183H22.2342H23.8541V13.382H22.2342Z" fill="#3EC7E3"/>
<path d="M29.0903 6.40002H13.3818V11.6364H29.0903V6.40002Z" fill="#00A2C7"/>
<path d="M11.6361 13.382H6.3999V18.6183H11.6361V13.382Z" fill="#CC1423"/>
<path d="M105.208 6.37188V18.9625C105.208 22.0188 103.033 24.25 99.6859 24.25C96.3391 24.25 94.1642 22.0188 94.1642 18.9625V6.37188H92.4112V19.0844C92.4018 23.0031 95.3642 25.9 99.6859 25.9C104.017 25.9 106.961 23.0031 106.961 19.0844V6.37188H105.208Z" fill="white"/>
<path d="M122.48 11.1719H124.177C124.046 8.25626 121.524 6.10001 117.952 6.10001C114.409 6.10001 111.681 8.22813 111.681 11.3219C111.681 13.7875 113.424 15.3344 116.434 16.225L118.73 16.9C121.112 17.5938 122.743 18.4844 122.743 20.4438C122.743 22.75 120.652 24.2969 117.784 24.2969C115.196 24.2969 113.171 23.05 112.984 20.7719H111.184C111.39 23.8094 113.865 25.9 117.784 25.9C121.946 25.9 124.44 23.5469 124.44 20.4719C124.44 17.2844 121.665 16.0094 119.227 15.325L117.202 14.7438C115.337 14.2188 113.378 13.2719 113.378 11.2469C113.378 9.18438 115.224 7.67501 117.905 7.67501C120.446 7.67501 122.265 9.03438 122.48 11.1719Z" fill="white"/>
<path d="M34.3237 25.6H38.3829V17.6688H46.192V14.3219H38.3829V9.7469H47.0357V6.40002H34.3237V25.6Z" fill="white"/>
<path d="M49.0349 9.7469H54.9128V25.6H58.9251V9.7469H64.803V6.40002H49.0349V9.7469Z" fill="white"/>
<path d="M71.2059 6.40002H66.6029L72.4996 16L66.4904 25.6H71.1403L75.0776 19.0469H75.2276L79.1649 25.6H83.8335L77.8431 16L83.7023 6.40002H79.1181L75.2276 12.9438H75.0776L71.2059 6.40002Z" fill="white"/>
</svg>
