<svg id="Layer_1" data-name="Layer 1" xmlns="http://www.w3.org/2000/svg" xmlns:xlink="http://www.w3.org/1999/xlink" viewBox="0 0 1768.3 387.9"><defs><style>.cls-1{fill:#fff;}.cls-2{fill:url(#Unbenannter_Verlauf_88);}.cls-3{fill:url(#Unbenannter_Verlauf_71);}.cls-4{fill:url(#Unbenannter_Verlauf_88-2);}.cls-5{fill:url(#Unbenannter_Verlauf_534);}.cls-6{fill:url(#Unbenannter_Verlauf_87);}.cls-7{fill:url(#Unbenannter_Verlauf_89);}.cls-8{fill:url(#Unbenannter_Verlauf_87-2);}.cls-9{fill:#10052f;}.cls-10{fill:url(#Unbenannter_Verlauf_88-3);}.cls-11{fill:url(#Unbenannter_Verlauf_71-2);}.cls-12{fill:url(#Unbenannter_Verlauf_88-4);}.cls-13{fill:url(#Unbenannter_Verlauf_534-2);}.cls-14{fill:url(#Unbenannter_Verlauf_87-3);}.cls-15{fill:url(#Unbenannter_Verlauf_89-2);}.cls-16{fill:url(#Unbenannter_Verlauf_87-4);}</style><radialGradient id="Unbenannter_Verlauf_88" cx="310.95" cy="530.25" r="124.83" gradientUnits="userSpaceOnUse"><stop offset="0.31" stop-color="#1c1564"/><stop offset="0.32" stop-color="#1c1666"/><stop offset="0.63" stop-color="#262e97"/><stop offset="0.87" stop-color="#2c3cb6"/><stop offset="1" stop-color="#2e42c1"/></radialGradient><radialGradient id="Unbenannter_Verlauf_71" cx="240.12" cy="575.43" r="143.02" gradientTransform="translate(0 68.9) scale(1 0.88)" gradientUnits="userSpaceOnUse"><stop offset="0.4" stop-color="#1c1564"/><stop offset="0.41" stop-color="#1c1666"/><stop offset="0.68" stop-color="#262e97"/><stop offset="0.89" stop-color="#2c3cb6"/><stop offset="1" stop-color="#2e42c1"/></radialGradient><radialGradient id="Unbenannter_Verlauf_88-2" cx="282.73" cy="396.99" r="197.4" xlink:href="#Unbenannter_Verlauf_88"/><linearGradient id="Unbenannter_Verlauf_534" x1="-615.88" y1="1168.01" x2="-615.88" y2="1168.01" gradientTransform="matrix(-0.33, 0.94, 0.94, 0.33, -877.63, 787.95)" gradientUnits="userSpaceOnUse"><stop offset="0" stop-color="#283fa3"/><stop offset="1" stop-color="#1b1464"/></linearGradient><linearGradient id="Unbenannter_Verlauf_87" x1="176.53" y1="492.28" x2="454.66" y2="552.49" gradientUnits="userSpaceOnUse"><stop offset="0" stop-color="#46ffd7"/><stop offset="0.28" stop-color="#3ecfe7"/><stop offset="0.3" stop-color="#3dc5e5"/><stop offset="0.39" stop-color="#399cdc"/><stop offset="0.47" stop-color="#367ed6"/><stop offset="0.54" stop-color="#346cd2"/><stop offset="0.59" stop-color="#3365d1"/><stop offset="0.6" stop-color="#3465d1"/><stop offset="0.69" stop-color="#6469cb"/><stop offset="0.78" stop-color="#8a6cc6"/><stop offset="0.87" stop-color="#a66ec2"/><stop offset="0.94" stop-color="#b670c0"/><stop offset="1" stop-color="#bc70bf"/></linearGradient><linearGradient id="Unbenannter_Verlauf_89" x1="146.41" y1="597.16" x2="386.39" y2="387.72" gradientUnits="userSpaceOnUse"><stop offset="0" stop-color="#46ffd7"/><stop offset="0.31" stop-color="#3ecfe7"/><stop offset="0.72" stop-color="#3365d1"/><stop offset="0.77" stop-color="#3765d0"/><stop offset="0.82" stop-color="#4566cf"/><stop offset="0.87" stop-color="#5a68cc"/><stop offset="0.92" stop-color="#796bc8"/><stop offset="0.97" stop-color="#a06ec3"/><stop offset="1" stop-color="#bc70bf"/></linearGradient><linearGradient id="Unbenannter_Verlauf_87-2" x1="261.19" y1="498.29" x2="425.7" y2="639.9" xlink:href="#Unbenannter_Verlauf_87"/><radialGradient id="Unbenannter_Verlauf_88-3" cx="309.5" cy="530.78" r="122.61" xlink:href="#Unbenannter_Verlauf_88"/><radialGradient id="Unbenannter_Verlauf_71-2" cx="239.93" cy="575.15" r="140.48" xlink:href="#Unbenannter_Verlauf_71"/><radialGradient id="Unbenannter_Verlauf_88-4" cx="281.79" cy="399.89" r="193.89" xlink:href="#Unbenannter_Verlauf_88"/><linearGradient id="Unbenannter_Verlauf_534-2" x1="-615.23" y1="1164.5" x2="-615.23" y2="1164.5" xlink:href="#Unbenannter_Verlauf_534"/><linearGradient id="Unbenannter_Verlauf_87-3" x1="177.47" y1="493.49" x2="450.66" y2="552.62" xlink:href="#Unbenannter_Verlauf_87"/><linearGradient id="Unbenannter_Verlauf_89-2" x1="147.89" y1="596.5" x2="383.6" y2="390.78" xlink:href="#Unbenannter_Verlauf_89"/><linearGradient id="Unbenannter_Verlauf_87-4" x1="260.63" y1="499.39" x2="422.21" y2="638.48" xlink:href="#Unbenannter_Verlauf_87"/></defs><title>solsea_Logo_RGB_final1</title><path class="cls-1" d="M580.2,577.9h48.5c0,14.3,12.4,27.6,34.2,27.6s33.8-9.3,33.8-22.7c0-11.5-8.9-16.9-24.5-20.4l-27.5-7.2C598,542.8,586,517.9,586,491.7c0-32.5,32-61,77.3-61,37,0,78.8,18.3,78.3,65H692.2c0-14.7-12.8-23.6-27.5-23.6s-27.2,8.9-27.2,21.8c0,10.7,10.3,16.9,22.3,19.5l33.3,8.9c46.7,12,55.2,41.4,55.2,60.5,0,42.3-42.3,64.5-84.5,64.5S581.1,622.4,580.2,577.9Z" transform="translate(-81.4 -324)"/><path class="cls-1" d="M787.9,538.4c0-65.9,51.1-107.7,110.2-107.7s110.8,41.8,110.8,107.7S957.3,647.3,898.1,647.3,787.9,604.2,787.9,538.4Zm168.9,0c0-35.6-26.6-59.6-58.7-59.6s-58.2,24-58.2,59.6,26.2,60.9,58.2,60.9S956.8,574.8,956.8,538.4Z" transform="translate(-81.4 -324)"/><path class="cls-1" d="M1061.8,324h51.6V642.9h-51.6Z" transform="translate(-81.4 -324)"/><path class="cls-1" d="M1164.9,577.9h48.5c0,14.3,12.5,27.6,34.3,27.6s33.8-9.3,33.8-22.7c0-11.5-8.9-16.9-24.5-20.4l-27.6-7.2c-46.7-12.4-58.7-37.3-58.7-63.5,0-32.5,32-61,77.4-61,36.9,0,78.7,18.3,78.3,65H1277c0-14.7-12.9-23.6-27.6-23.6s-27.1,8.9-27.1,21.8c0,10.7,10.2,16.9,22.2,19.5l33.4,8.9c46.7,12,55.1,41.4,55.1,60.5,0,42.3-42.2,64.5-84.4,64.5S1165.8,622.4,1164.9,577.9Z" transform="translate(-81.4 -324)"/><path class="cls-1" d="M1586.5,557H1426c5.8,28.9,28,43.6,58.7,43.6,22.7,0,44-8.9,56.5-25.8l34.2,26.3c-19.1,30.2-55.6,46.2-93.4,46.2-62.2,0-109.4-43.6-109.4-108.5s49.8-108.1,109-108.1,106.3,41.4,106.3,106.3A171.4,171.4,0,0,1,1586.5,557Zm-50.2-36c-3.1-28.5-24.9-44.9-53.8-44.9s-50.3,13.3-56.5,44.9Z" transform="translate(-81.4 -324)"/><path class="cls-1" d="M1849.8,435.2V642.9h-51.6V614.8c-14.2,22.3-43.6,32.5-68.9,32.5-54.7,0-102.3-42.2-102.3-108.5s47.1-108.1,101.8-108.1c26.3,0,55.2,10.3,69.4,32V435.2Zm-52.5,103.2c0-36.5-30.2-59.6-60-59.6-32.1,0-58.3,24.9-58.3,59.6s26.2,60.4,58.3,60.4S1797.3,574.8,1797.3,538.4Z" transform="translate(-81.4 -324)"/><path class="cls-2" d="M363.4,638.5a92.6,92.6,0,0,0,22.4-60.8c0-49.9-38.8-90.4-86.7-90.4A84.2,84.2,0,0,0,251,502.4s22.9-35.3,94.9-24,84.9,67.8,82,111.7a172.1,172.1,0,0,1-48.3,69.1Z" transform="translate(-81.4 -324)"/><path class="cls-3" d="M379.4,659.3h-.1c-3.3,2.8-6.6,5.5-10.1,8.1-77.2,57.2-186.1,41.1-243.3-36A174.4,174.4,0,0,1,94,556.3l65.4,21.5a117.8,117.8,0,0,0,12,20c29.7,40.1,78.7,53.6,123.4,40h0a49.4,49.4,0,1,0-42.1-88.3s33.8-27.7,79-12c0,0,43.4,13.8,57.7,60S379.4,659.3,379.4,659.3Z" transform="translate(-81.4 -324)"/><path class="cls-4" d="M428,589.6a173.7,173.7,0,0,0-22.8-165.3l-1.7-2.1-30.2-15.5L268,387.9l-6.3,22.8a117,117,0,0,1,98,47.3,109.7,109.7,0,0,1,14.8,26.9l7,3.4,38.9,38.6,9.3,41.3-1.5,18.4Z" transform="translate(-81.4 -324)"/><path class="cls-5" d="M427.9,590.3" transform="translate(-81.4 -324)"/><path class="cls-6" d="M427.9,590.1a118.1,118.1,0,1,0-226.6-4,113.6,113.6,0,0,1,226.6,4Z" transform="translate(-81.4 -324)"/><path class="cls-7" d="M220.4,436.7c63.1-46.8,150.3-37.8,202.9,18a170.3,170.3,0,0,0-18-30.3A173.9,173.9,0,1,0,251.8,701.1a152.8,152.8,0,0,1-63.3-49.8C138,583.3,152.3,487.2,220.4,436.7Z" transform="translate(-81.4 -324)"/><path class="cls-8" d="M379.3,659.4A84,84,0,0,0,269.7,532.7a82.1,82.1,0,0,0-17,16.8A87.1,87.1,0,0,1,379.3,659.4Z" transform="translate(-81.4 -324)"/><circle class="cls-9" cx="183.4" cy="204.5" r="183.4"/><path class="cls-10" d="M361,637.1a90.8,90.8,0,0,0,22.1-59.7c0-49.1-38.2-88.8-85.3-88.8a81.7,81.7,0,0,0-47.2,14.9s22.5-34.8,93.2-23.7,83.5,66.7,80.6,109.8a169.3,169.3,0,0,1-47.5,67.8Z" transform="translate(-81.4 -324)"/><path class="cls-11" d="M376.7,657.5h0c0,.1,0,.1-.1.2h0c-3.2,2.8-6.5,5.5-9.9,8-75.8,56.2-182.8,40.3-238.9-35.4a169.8,169.8,0,0,1-31.4-73.9l64.3,21.2a119.4,119.4,0,0,0,11.7,19.6c29.2,39.4,77.3,52.7,121.2,39.3h0a48.6,48.6,0,1,0-41.3-86.7s33.2-27.2,77.6-11.8c0,0,42.6,13.6,56.7,58.9S376.7,657.5,376.7,657.5Z" transform="translate(-81.4 -324)"/><path class="cls-12" d="M424.5,589.1A170.6,170.6,0,0,0,402,426.7l-1.6-2.1-29.7-15.2L267.3,391l-6.2,22.3a114.7,114.7,0,0,1,110.9,73l6.8,3.3L417,527.5l9.1,40.6-1.4,18.1Z" transform="translate(-81.4 -324)"/><path class="cls-13" d="M424.4,589.8" transform="translate(-81.4 -324)"/><path class="cls-14" d="M424.4,589.6a115.9,115.9,0,0,0-17.5-103.9c-38.1-51.5-110.8-62.2-162.3-24.1a116.2,116.2,0,0,0-42.8,124,111.6,111.6,0,0,1,222.6,4Z" transform="translate(-81.4 -324)"/><path class="cls-15" d="M220.5,438.9a150.8,150.8,0,0,1,199.4,17.7,170.8,170.8,0,0,0-17.7-29.8C346,351,239,335.2,163.2,391.3a170.7,170.7,0,0,0,88.2,307.3,150.4,150.4,0,0,1-62.2-48.9C139.7,582.9,153.7,488.5,220.5,438.9Z" transform="translate(-81.4 -324)"/><path class="cls-16" d="M376.6,657.7A82.5,82.5,0,0,0,269,533.1a79.7,79.7,0,0,0-16.7,16.6,85.5,85.5,0,0,1,124.3,108Z" transform="translate(-81.4 -324)"/></svg>